<svg xmlns="http://www.w3.org/2000/svg" width="236" height="144">
  <svg id="barcodeSVG" role="img" aria-label="Barcode preview" width="234px" height="142px" x="0px" y="0px" viewBox="0 0 234 142" xmlns="http://www.w3.org/2000/svg" version="1.1" style="transform: translate(0,0)">
    <rect x="0" y="0" width="234" height="142" style="fill:#ffffff;" />
    <g transform="translate(10, 10)" style="fill:#000000;"><text style="font: 20px Roboto" text-anchor="start" x="0" y="122">5</text></g>
    <g transform="translate(34, 10)" style="fill:#000000;">
        <rect x="0" y="0" width="2" height="112" />
        <rect x="4" y="0" width="2" height="112" />
        <text style="font: 20px Roboto" text-anchor="middle" x="3" y="134"></text>
    </g>
    <g transform="translate(40, 10)" style="fill:#000000;">
        <rect x="6" y="0" width="2" height="100" />
        <rect x="10" y="0" width="4" height="100" />
        <rect x="16" y="0" width="2" height="100" />
        <rect x="22" y="0" width="6" height="100" />
        <rect x="30" y="0" width="4" height="100" />
        <rect x="38" y="0" width="4" height="100" />
        <rect x="46" y="0" width="2" height="100" />
        <rect x="52" y="0" width="4" height="100" />
        <rect x="58" y="0" width="8" height="100" />
        <rect x="68" y="0" width="2" height="100" />
        <rect x="74" y="0" width="6" height="100" />
        <rect x="82" y="0" width="2" height="100" />
        <text style="font: 20px Roboto" text-anchor="middle" x="42" y="122">901234</text>
    </g>
    <g transform="translate(124, 10)" style="fill:#000000;">
        <rect x="2" y="0" width="2" height="112" />
        <rect x="6" y="0" width="2" height="112" />
        <text style="font: 20px Roboto" text-anchor="middle" x="5" y="134"></text>
    </g>
    <g transform="translate(134, 10)" style="fill:#000000;">
        <rect x="0" y="0" width="4" height="100" />
        <rect x="8" y="0" width="4" height="100" />
        <rect x="14" y="0" width="4" height="100" />
        <rect x="20" y="0" width="4" height="100" />
        <rect x="28" y="0" width="2" height="100" />
        <rect x="38" y="0" width="2" height="100" />
        <rect x="42" y="0" width="2" height="100" />
        <rect x="46" y="0" width="6" height="100" />
        <rect x="56" y="0" width="2" height="100" />
        <rect x="62" y="0" width="6" height="100" />
        <rect x="70" y="0" width="2" height="100" />
        <rect x="78" y="0" width="2" height="100" />
        <text style="font: 20px Roboto" text-anchor="middle" x="42" y="122">123457</text>
      </g>
    <g transform="translate(218, 10)" style="fill:#000000;">
        <rect x="0" y="0" width="2" height="112" />
        <rect x="4" y="0" width="2" height="112" />
        <text style="font: 20px Roboto" text-anchor="middle" x="3" y="134"></text>
    </g>
  </svg>
</svg>